<svg width="1046" height="456" viewBox="0 0 1046 456" fill="none" xmlns="http://www.w3.org/2000/svg">
<path d="M66.1218 269.047V29.2298H0V20.5937H141.88V29.2298H76.09V269.047H66.1218ZM46.1856 269.047V46.5019H0V37.8658H56.1537V269.047H46.1856ZM86.0581 269.047V37.8658H141.88V46.5019H96.0262V269.047H86.0581ZM0 11.9576V3.32158H141.88V11.9576H0Z" fill="#222"/>
<path d="M199.869 269.047V3.32158H209.837V269.047H199.869ZM159.996 269.047V3.32158H169.964V269.047H159.996ZM179.932 269.047V3.32158H189.9V269.047H179.932Z" fill="#222"/>
<path d="M302.789 272.368C278.644 272.368 261.2 267.192 250.457 256.84C239.713 246.488 234.009 229.409 233.345 205.605C233.179 200.29 233.096 194.256 233.096 187.502C233.096 180.749 233.179 174.714 233.345 169.4H243.313C243.202 172.832 243.119 176.68 243.064 180.942C243.064 185.205 243.064 189.468 243.064 193.73C243.119 197.993 243.202 201.84 243.313 205.273C243.977 226.42 248.906 241.561 258.099 250.695C267.292 259.829 282.189 264.397 302.789 264.397C324.775 264.397 340.502 259.857 349.972 250.778C359.497 241.644 364.259 226.586 364.259 205.605V3.32158H374.227V205.605C374.227 229.409 368.69 246.488 357.614 256.84C346.594 267.192 328.319 272.368 302.789 272.368ZM302.789 256.425C285.622 256.425 273.217 252.439 265.575 244.467C257.933 236.495 253.835 223.32 253.281 204.941C253.17 201.619 253.087 197.855 253.032 193.647C253.032 189.44 253.032 185.205 253.032 180.942C253.087 176.68 253.17 172.832 253.281 169.4H263.249C263.083 174.382 263 180.25 263 187.004C263 193.758 263.083 199.626 263.249 204.608C263.858 220.275 267.209 231.513 273.3 238.322C279.447 245.076 289.277 248.453 302.789 248.453C317.631 248.453 328.263 245.159 334.687 238.571C341.111 231.928 344.323 220.939 344.323 205.605V3.32158H354.291V205.605C354.291 223.763 350.304 236.772 342.329 244.633C334.355 252.494 321.175 256.425 302.789 256.425ZM302.789 240.481C292.6 240.481 285.234 237.658 280.693 232.011C276.152 226.365 273.66 217.12 273.217 204.276C273.106 201.065 273.023 197.356 272.968 193.149C272.968 188.942 272.968 184.734 272.968 180.527C273.023 176.32 273.106 172.611 273.217 169.4H283.185C283.075 172.943 282.992 176.873 282.936 181.191C282.936 185.509 282.964 189.717 283.019 193.813C283.075 197.855 283.13 201.342 283.185 204.276C283.462 213.798 285.013 220.884 287.837 225.534C290.717 230.184 295.701 232.51 302.789 232.51C310.542 232.51 316.08 230.434 319.403 226.282C322.726 222.074 324.387 215.182 324.387 205.605V3.32158H334.355V205.605C334.355 218.061 331.891 227.001 326.962 232.427C322.089 237.796 314.031 240.481 302.789 240.481Z" fill="#222"/>
<path d="M477.143 272.368C451.226 272.368 432.591 267.192 421.239 256.84C409.886 246.488 404.044 229.409 403.711 205.605C403.49 189.883 403.296 173.801 403.13 157.359C403.019 140.917 402.964 124.227 402.964 107.287C402.964 90.2912 403.019 73.1298 403.13 55.8023C403.241 38.4194 403.434 20.9259 403.711 3.32158H413.679C413.458 19.5419 413.264 36.0667 413.098 52.8959C412.987 69.7252 412.932 86.6652 412.932 103.716C412.932 120.767 412.987 137.817 413.098 154.868C413.264 171.919 413.458 188.776 413.679 205.439C413.956 226.475 418.996 241.561 428.798 250.695C438.6 259.829 454.715 264.397 477.143 264.397C499.461 264.397 515.493 259.829 525.239 250.695C534.986 241.561 539.998 226.475 540.275 205.439C540.496 188.72 540.662 171.919 540.773 155.034C540.939 138.094 541.022 121.154 541.022 104.214C541.022 87.2741 540.967 70.3895 540.856 53.5603C540.745 36.6756 540.551 19.9294 540.275 3.32158H550.243C550.575 25.4653 550.796 47.8305 550.907 70.4172C551.018 93.0038 551.018 115.618 550.907 138.26C550.796 160.902 550.575 183.35 550.243 205.605C549.91 229.409 544.096 246.488 532.798 256.84C521.501 267.192 502.949 272.368 477.143 272.368ZM477.143 256.425C458.314 256.425 444.747 252.467 436.44 244.55C428.189 236.634 423.924 223.569 423.648 205.356C423.426 188.084 423.232 170.978 423.066 154.038C422.955 137.042 422.9 120.158 422.9 103.384C422.9 86.6098 422.955 69.8913 423.066 53.2281C423.232 36.5649 423.426 19.9294 423.648 3.32158H433.616C433.394 19.9848 433.2 36.7033 433.034 53.4772C432.923 70.1957 432.868 86.9973 432.868 103.882C432.868 120.711 432.923 137.568 433.034 154.453C433.2 171.337 433.394 188.25 433.616 205.19C433.837 220.635 437.298 231.707 443.999 238.405C450.755 245.104 461.803 248.453 477.143 248.453C492.372 248.453 503.309 245.104 509.955 238.405C516.656 231.707 520.117 220.635 520.338 205.19C520.56 188.471 520.726 171.67 520.837 154.785C521.003 137.9 521.086 121.016 521.086 104.131C521.086 87.1911 521.03 70.3065 520.92 53.4772C520.809 36.6479 520.615 19.9294 520.338 3.32158H530.306C530.583 20.2616 530.777 37.1739 530.888 54.0585C530.999 70.9431 531.054 87.8277 531.054 104.712C531.054 121.597 530.999 138.426 530.888 155.2C530.777 171.974 530.583 188.693 530.306 205.356C530.085 223.569 525.848 236.634 517.597 244.55C509.346 252.467 495.861 256.425 477.143 256.425ZM477.143 240.481C465.348 240.481 456.847 237.741 451.641 232.26C446.436 226.78 443.75 217.701 443.584 205.024C443.251 182.16 443.03 159.518 442.919 137.098C442.808 114.622 442.808 92.2565 442.919 70.002C443.03 47.7475 443.251 25.5207 443.584 3.32158H453.552C453.33 19.5419 453.137 36.0667 452.97 52.8959C452.86 69.6698 452.804 86.5821 452.804 103.633C452.804 120.628 452.86 137.624 452.97 154.619C453.137 171.614 453.33 188.388 453.552 204.941C453.663 214.795 455.545 221.853 459.2 226.116C462.911 230.378 468.892 232.51 477.143 232.51C485.339 232.51 491.237 230.378 494.836 226.116C498.436 221.853 500.291 214.795 500.402 204.941C500.734 182.575 500.956 160.155 501.067 137.679C501.177 115.148 501.177 92.6717 501.067 70.2511C500.956 47.7752 500.734 25.4653 500.402 3.32158H510.37C510.647 20.3169 510.841 37.2569 510.952 54.1415C511.062 71.0262 511.118 87.8831 511.118 104.712C511.118 121.542 511.062 138.316 510.952 155.034C510.841 171.753 510.647 188.416 510.37 205.024C510.204 217.701 507.546 226.78 502.396 232.26C497.245 237.741 488.828 240.481 477.143 240.481Z" fill="#222"/>
<path d="M574.529 269.047V260.411H631.016V269.047H574.529ZM574.529 234.503V225.866H631.016V234.503H574.529ZM574.529 251.775V243.139H631.016V251.775H574.529Z" fill="#222"/>
<path d="M728.61 272.368C702.914 272.368 684.362 267.192 672.954 256.84C661.602 246.488 655.676 229.409 655.178 205.605C654.901 192.374 654.679 178.562 654.513 164.168C654.402 149.72 654.375 134.413 654.43 118.248C654.541 102.027 654.762 84.6446 655.095 66.0992C655.538 41.6856 661.657 24.5796 673.453 14.781C685.304 4.92699 703.689 0 728.61 0C753.862 0 772.054 5.14843 783.185 15.4453C794.371 25.7421 800.325 42.7375 801.045 66.4313C801.155 69.1439 801.211 72.078 801.211 75.2335C801.211 78.3336 801.183 81.4891 801.128 84.6999C801.072 87.9108 801.017 91.0662 800.962 94.1664C800.906 97.2665 800.823 100.201 800.712 102.969H790.744C790.855 99.3148 790.938 95.3566 790.993 91.0939C791.104 86.8313 791.16 82.5963 791.16 78.389C791.215 74.1263 791.187 70.2511 791.076 66.7635C790.412 45.7269 785.234 30.6691 775.543 21.5902C765.852 12.5112 750.207 7.97177 728.61 7.97177C707.067 7.97177 691.174 12.3452 680.929 21.092C670.684 29.7834 665.423 44.8965 665.146 66.4313C664.924 83.2606 664.758 99.647 664.648 115.59C664.537 131.479 664.509 146.896 664.564 161.843C664.675 176.735 664.869 191.211 665.146 205.273C665.589 227.084 670.933 242.391 681.178 251.193C691.478 259.996 707.289 264.397 728.61 264.397C750.761 264.397 766.765 259.829 776.623 250.695C786.48 241.561 791.741 226.42 792.406 205.273C792.572 200.124 792.655 194.145 792.655 187.336C792.655 180.527 792.572 174.548 792.406 169.4H802.374C802.54 174.714 802.623 180.749 802.623 187.502C802.623 194.256 802.54 200.29 802.374 205.605C801.709 229.409 795.673 246.488 784.265 256.84C772.857 267.192 754.305 272.368 728.61 272.368ZM728.61 256.425C709.836 256.425 696.324 252.467 688.073 244.55C679.821 236.634 675.502 223.541 675.114 205.273C674.782 188.831 674.56 173.413 674.449 159.02C674.339 144.626 674.339 130.012 674.449 115.175C674.56 100.339 674.754 84.091 675.031 66.4313C675.308 48.1627 679.627 35.1809 687.99 27.486C696.407 19.791 709.947 15.9435 728.61 15.9435C747.106 15.9435 760.341 19.9571 768.316 27.9842C776.29 36.0113 780.555 49.0485 781.108 67.0956C781.164 69.2546 781.191 71.5244 781.191 73.9048C781.247 76.2853 781.247 78.8872 781.191 81.7105C781.136 84.5338 781.081 87.6893 781.025 91.177C780.97 94.6646 780.887 98.5951 780.776 102.969H770.808C770.974 96.6576 771.085 91.3707 771.14 87.108C771.196 82.8454 771.223 79.164 771.223 76.0639C771.279 72.9637 771.251 70.0297 771.14 67.2617C770.753 52.4254 767.43 41.4919 761.172 34.4613C754.914 27.4306 744.06 23.9153 728.61 23.9153C712.882 23.9153 701.751 27.3199 695.216 34.1291C688.682 40.8829 685.304 51.7611 685.082 66.7635C684.861 84.4785 684.667 100.533 684.501 114.926C684.335 129.264 684.279 143.547 684.335 157.774C684.39 171.946 684.639 187.668 685.082 204.941C685.47 220.22 688.959 231.292 695.549 238.156C702.139 245.021 713.159 248.453 728.61 248.453C742.565 248.453 753.17 245.298 760.424 238.987C767.734 232.62 771.749 221.161 772.469 204.608C772.58 202.062 772.663 198.602 772.719 194.229C772.774 189.8 772.774 185.316 772.719 180.776C772.719 176.181 772.635 172.389 772.469 169.4H782.437C782.548 172.168 782.604 175.655 782.604 179.863C782.659 184.07 782.687 188.416 782.687 192.9C782.687 197.329 782.604 201.342 782.437 204.941C781.717 223.32 777.177 236.495 768.814 244.467C760.452 252.439 747.051 256.425 728.61 256.425ZM728.61 240.481C716.925 240.481 708.479 237.686 703.274 232.094C698.124 226.503 695.41 217.452 695.133 204.941C694.746 188.942 694.496 173.746 694.386 159.352C694.275 144.903 694.275 130.205 694.386 115.258C694.496 100.311 694.718 84.1463 695.05 66.7635C695.327 54.529 697.985 45.6715 703.025 40.191C708.064 34.655 716.592 31.887 728.61 31.887C739.741 31.887 747.854 34.655 752.948 40.191C758.043 45.6715 760.784 54.8612 761.172 67.7599C761.283 70.9708 761.311 74.6522 761.255 78.8041C761.255 82.9007 761.2 87.0804 761.089 91.343C761.034 95.5504 760.951 99.4255 760.84 102.969H750.872C751.038 98.5951 751.149 94.3325 751.204 90.1805C751.259 86.0286 751.287 82.0703 751.287 78.3059C751.342 74.5415 751.315 71.0262 751.204 67.7599C750.982 57.9613 749.155 50.8753 745.722 46.5019C742.288 42.0732 736.584 39.8588 728.61 39.8588C720.414 39.8588 714.488 41.9624 710.833 46.1698C707.234 50.3771 705.295 57.3524 705.018 67.0956C704.575 83.5927 704.271 99.2318 704.105 114.013C703.994 128.738 703.994 143.464 704.105 158.19C704.271 172.86 704.575 188.333 705.018 204.608C705.295 214.573 707.234 221.714 710.833 226.033C714.488 230.351 720.414 232.51 728.61 232.51C737.359 232.51 743.479 230.212 746.967 225.617C750.456 220.967 752.312 213.853 752.533 204.276C752.699 199.294 752.782 193.453 752.782 186.755C752.782 180.001 752.699 174.216 752.533 169.4H762.501C762.667 174.216 762.75 180.029 762.75 186.838C762.75 193.647 762.667 199.46 762.501 204.276C762.114 216.954 759.345 226.171 754.194 231.928C749.044 237.63 740.516 240.481 728.61 240.481Z" fill="#222"/>
<path d="M817.798 269.047L854.68 3.32158H939.742L976.624 269.047H966.489L931.103 11.3764H863.319L827.932 269.047H817.798ZM858.003 269.047L866.974 203.944H927.448L936.419 269.047H926.118L919.473 211.916H874.949L868.303 269.047H858.003ZM837.734 269.047L869.3 19.5142H925.122L956.687 269.047H946.387L937.083 195.972H857.339L848.035 269.047H837.734ZM858.003 188.001H936.087L927.281 111.189L916.483 27.569H877.939L866.808 111.189L858.003 188.001ZM869.3 180.029L876.361 111.189L884.585 35.0425H909.837L918.393 111.189L925.122 180.029H869.3ZM879.601 172.057H914.821L909.173 111.189L902.527 43.1804H891.895L885.249 111.189L879.601 172.057Z" fill="#222"/>
<path d="M158.337 440.315V310.276H199.83V320.739H170.206V369.503H197.961V380.06H170.206V440.315H158.337Z" fill="#222"/>
<path d="M212.546 440.315V310.276H224.415V429.759H254.039V440.315H212.546Z" fill="#222"/>
<path d="M286.819 441.436C278.284 441.436 272.179 439.755 268.503 436.391C264.827 432.966 262.927 427.33 262.802 419.483C262.616 410.826 262.46 402.885 262.335 395.661C262.273 388.436 262.242 381.492 262.242 374.828C262.242 368.102 262.273 361.22 262.335 354.183C262.46 347.083 262.616 339.36 262.802 331.015C262.927 323.23 264.827 317.656 268.503 314.293C272.241 310.867 278.346 309.155 286.819 309.155C295.417 309.155 301.522 310.867 305.136 314.293C308.812 317.656 310.774 323.23 311.023 331.015C311.148 337.679 311.21 343.938 311.21 349.792C311.272 355.584 311.304 361.189 311.304 366.607C311.366 372.026 311.366 377.475 311.304 382.956C311.304 388.374 311.272 394.104 311.21 400.145C311.21 406.124 311.148 412.57 311.023 419.483C310.836 427.33 308.905 432.966 305.229 436.391C301.554 439.755 295.417 441.436 286.819 441.436ZM286.819 431.44C291.118 431.44 294.233 430.693 296.164 429.198C298.096 427.641 299.093 425.025 299.155 421.351C299.342 412.196 299.466 403.882 299.529 396.408C299.653 388.935 299.716 381.741 299.716 374.828C299.716 367.853 299.653 360.722 299.529 353.435C299.466 346.086 299.342 338.021 299.155 329.24C299.093 325.503 298.096 322.887 296.164 321.393C294.233 319.836 291.118 319.057 286.819 319.057C282.645 319.057 279.593 319.836 277.661 321.393C275.792 322.887 274.795 325.472 274.671 329.146C274.422 337.99 274.235 346.086 274.11 353.435C273.985 360.722 273.923 367.853 273.923 374.828C273.985 381.741 274.079 388.935 274.204 396.408C274.328 403.882 274.484 412.227 274.671 421.444C274.795 425.057 275.792 427.641 277.661 429.198C279.593 430.693 282.645 431.44 286.819 431.44Z" fill="#222"/>
<path d="M328.448 440.315V310.276H350.782C352.963 310.276 355.361 310.431 357.978 310.743C360.657 310.992 363.211 311.739 365.641 312.985C368.071 314.23 370.127 316.379 371.809 319.431C373.553 322.42 374.581 326.624 374.893 332.042C375.017 333.786 375.111 336.246 375.173 339.422C375.235 342.536 375.266 345.931 375.266 349.605C375.329 353.28 375.329 356.892 375.266 360.442C375.204 363.929 375.08 366.919 374.893 369.41C374.519 375.638 373.179 380.215 370.874 383.143C368.631 386.07 366.015 388.063 363.024 389.121L377.79 440.315H365.174L351.717 391.083H340.316V440.315H328.448ZM340.316 380.527H350.689C352.745 380.527 354.645 380.278 356.389 379.779C358.196 379.281 359.691 378.285 360.875 376.79C362.059 375.295 362.775 372.96 363.024 369.784C363.211 367.604 363.336 364.77 363.398 361.283C363.461 357.733 363.492 354.027 363.492 350.166C363.492 346.242 363.429 342.63 363.305 339.329C363.242 335.966 363.149 333.381 363.024 331.575C362.837 328.337 362.152 325.97 360.968 324.475C359.785 322.981 358.321 321.984 356.576 321.486C354.832 320.988 352.901 320.739 350.782 320.739H340.316V380.527Z" fill="#222"/>
<path d="M391.783 440.315V310.276H433.275V320.739H403.651V369.503H431.406V380.06H403.651V429.759H433.275V440.315H391.783Z" fill="#222"/>
<path d="M469.137 441.436C463.53 441.436 458.982 440.689 455.493 439.194C452.004 437.699 449.418 435.333 447.736 432.094C446.116 428.793 445.182 424.496 444.933 419.202C444.87 414.531 444.839 410.234 444.839 406.31C444.839 402.325 444.964 397.996 445.213 393.325H456.521C456.396 396.315 456.303 399.397 456.24 402.574C456.178 405.688 456.178 408.833 456.24 412.009C456.303 415.123 456.396 418.144 456.521 421.071C456.77 424.683 457.829 427.33 459.698 429.011C461.629 430.631 464.744 431.44 469.043 431.44C473.28 431.44 476.27 430.599 478.014 428.918C479.821 427.236 480.88 424.589 481.192 420.977C481.441 416.929 481.534 413.099 481.472 409.487C481.41 405.875 481.316 401.826 481.192 397.342C481.005 393.356 480.351 390.024 479.229 387.346C478.108 384.606 475.709 382.831 472.034 382.022L462.408 379.873C457.673 378.814 454.06 377.226 451.568 375.108C449.076 372.929 447.363 370.126 446.428 366.701C445.493 363.213 444.933 358.978 444.746 353.996C444.684 350.757 444.652 347.083 444.652 342.972C444.715 338.862 444.777 334.907 444.839 331.108C445.026 325.877 445.898 321.642 447.456 318.403C449.076 315.165 451.63 312.829 455.119 311.397C458.608 309.902 463.249 309.155 469.043 309.155C476.893 309.155 482.687 310.836 486.425 314.199C490.163 317.5 492.188 323.168 492.499 331.202C492.562 332.821 492.562 335.032 492.499 337.834C492.499 340.575 492.468 343.533 492.406 346.709C492.406 349.885 492.375 352.844 492.313 355.584H480.911C481.036 352.47 481.098 349.481 481.098 346.616C481.161 343.689 481.161 340.824 481.098 338.021C481.098 335.156 481.036 332.291 480.911 329.427C480.725 325.877 479.697 323.261 477.828 321.579C475.959 319.898 472.968 319.057 468.856 319.057C464.62 319.057 461.598 319.898 459.792 321.579C458.047 323.261 457.019 325.877 456.708 329.427C456.458 333.163 456.334 337.18 456.334 341.478C456.396 345.713 456.521 349.885 456.708 353.996C456.895 358.604 457.549 362.123 458.67 364.552C459.854 366.919 462.346 368.476 466.146 369.223L475.117 371.185C479.915 372.181 483.559 373.801 486.051 376.043C488.606 378.285 490.381 381.15 491.378 384.637C492.375 388.125 492.936 392.329 493.06 397.249C493.185 400.363 493.247 403.041 493.247 405.283C493.309 407.463 493.309 409.611 493.247 411.729C493.247 413.846 493.185 416.337 493.06 419.202C492.811 424.621 491.814 428.949 490.07 432.188C488.325 435.426 485.74 437.793 482.313 439.287C478.887 440.72 474.495 441.436 469.137 441.436Z" fill="#222"/>
<path d="M520.082 440.315V320.739H501.112V310.276H550.734V320.739H531.95V440.315H520.082Z" fill="#222"/>
<path d="M547.898 440.315L563.692 310.276H584.905L600.698 440.315H588.55L584.812 403.228H563.879L560.047 440.315H547.898ZM565.093 392.765H583.503L580.513 364.272L576.214 320.739H572.289L568.084 364.459L565.093 392.765Z" fill="#222"/>
<path d="M647.738 440.315L663.531 310.276H684.744L700.538 440.315H688.389L684.651 403.228H663.718L659.886 440.315H647.738ZM664.933 392.765H683.343L680.352 364.272L676.053 320.739H672.128L667.923 364.459L664.933 392.765Z" fill="#222"/>
<path d="M714.116 440.315V310.276H736.451C738.631 310.276 741.03 310.431 743.646 310.743C746.325 310.992 748.88 311.739 751.309 312.985C753.739 314.23 755.795 316.379 757.477 319.431C759.221 322.42 760.249 326.624 760.561 332.042C760.686 333.786 760.779 336.246 760.841 339.422C760.904 342.536 760.935 345.931 760.935 349.605C760.997 353.28 760.997 356.892 760.935 360.442C760.872 363.929 760.748 366.919 760.561 369.41C760.187 375.638 758.848 380.215 756.543 383.143C754.3 386.07 751.683 388.063 748.693 389.121L763.458 440.315H750.842L737.385 391.083H725.984V440.315H714.116ZM725.984 380.527H736.357C738.413 380.527 740.313 380.278 742.058 379.779C743.864 379.281 745.36 378.285 746.543 376.79C747.727 375.295 748.443 372.96 748.693 369.784C748.88 367.604 749.004 364.77 749.066 361.283C749.129 357.733 749.16 354.027 749.16 350.166C749.16 346.242 749.098 342.63 748.973 339.329C748.911 335.966 748.817 333.381 748.693 331.575C748.506 328.337 747.82 325.97 746.637 324.475C745.453 322.981 743.989 321.984 742.245 321.486C740.5 320.988 738.569 320.739 736.451 320.739H725.984V380.527Z" fill="#222"/>
<path d="M821.199 455.916C814.907 456.29 810.016 455.418 806.527 453.3C803.038 451.183 800.764 447.228 799.705 441.436C791.17 441.436 785.065 439.755 781.389 436.391C777.713 432.966 775.813 427.33 775.688 419.483C775.501 411.262 775.346 403.508 775.221 396.221C775.159 388.872 775.128 381.741 775.128 374.828C775.128 367.853 775.159 360.784 775.221 353.622C775.346 346.46 775.501 338.924 775.688 331.015C775.813 323.23 777.713 317.656 781.389 314.293C785.127 310.867 791.232 309.155 799.705 309.155C808.303 309.155 814.408 310.867 818.022 314.293C821.697 317.656 823.66 323.23 823.909 331.015C824.034 338.737 824.127 346.242 824.189 353.529C824.252 360.815 824.283 368.04 824.283 375.202C824.283 382.302 824.252 389.526 824.189 396.875C824.127 404.162 824.034 411.698 823.909 419.483C823.722 425.025 822.632 429.416 820.638 432.655C818.707 435.893 815.53 438.135 811.106 439.381C811.667 442.059 812.726 443.927 814.284 444.986C815.903 446.107 818.209 446.543 821.199 446.294V455.916ZM799.705 431.44C804.004 431.44 807.119 430.693 809.05 429.198C810.982 427.641 811.979 425.025 812.041 421.351C812.228 413.441 812.352 405.625 812.415 397.903C812.539 390.18 812.602 382.52 812.602 374.922C812.602 367.261 812.539 359.663 812.415 352.127C812.352 344.592 812.228 336.962 812.041 329.24C811.979 325.503 810.982 322.887 809.05 321.393C807.119 319.836 804.004 319.057 799.705 319.057C795.531 319.057 792.478 319.836 790.547 321.393C788.678 322.887 787.681 325.472 787.557 329.146C787.245 339.983 787.027 350.477 786.902 360.629C786.84 370.718 786.871 380.776 786.996 390.803C787.121 400.83 787.307 411.044 787.557 421.444C787.681 425.057 788.678 427.641 790.547 429.198C792.478 430.693 795.531 431.44 799.705 431.44Z" fill="#222"/>
<path d="M864.603 441.436C856.192 441.436 850.149 439.755 846.473 436.391C842.86 432.966 840.96 427.33 840.773 419.483C840.648 411.76 840.555 403.508 840.492 394.726C840.43 385.883 840.399 376.728 840.399 367.261C840.399 357.795 840.43 348.266 840.492 338.675C840.555 329.022 840.648 319.555 840.773 310.276H852.734C852.61 323.043 852.516 335.561 852.454 347.83C852.392 360.099 852.361 372.306 852.361 384.45C852.423 396.595 852.516 408.926 852.641 421.444C852.641 424.87 853.607 427.392 855.538 429.011C857.531 430.631 860.553 431.44 864.603 431.44C868.777 431.44 871.83 430.631 873.761 429.011C875.692 427.392 876.658 424.839 876.658 421.351C876.782 411.449 876.845 401.982 876.845 392.952C876.907 383.859 876.938 374.891 876.938 366.047C876.938 357.203 876.907 348.204 876.845 339.049C876.845 329.894 876.782 320.303 876.658 310.276H888.433C888.557 318.995 888.651 327.932 888.713 337.087C888.775 346.242 888.807 355.491 888.807 364.832C888.807 374.174 888.775 383.423 888.713 392.578C888.651 401.733 888.557 410.732 888.433 419.576C888.308 427.548 886.377 433.184 882.639 436.485C878.963 439.786 872.951 441.436 864.603 441.436Z" fill="#222"/>
<path d="M906.859 440.315V310.276H918.727V440.315H906.859Z" fill="#222"/>
<path d="M948.265 440.315L932.658 310.276H945.087L953.218 382.115L957.143 429.759H962.002L965.834 382.115L973.964 310.276H986.486L970.786 440.315H948.265Z" fill="#222"/>
<path d="M1021.47 441.436C1012.93 441.436 1006.83 439.755 1003.15 436.391C999.477 432.966 997.577 427.33 997.452 419.483C997.265 410.826 997.109 402.885 996.985 395.661C996.923 388.436 996.892 381.492 996.892 374.828C996.892 368.102 996.923 361.22 996.985 354.183C997.109 347.083 997.265 339.36 997.452 331.015C997.577 323.23 999.477 317.656 1003.15 314.293C1006.89 310.867 1013 309.155 1021.47 309.155C1030.07 309.155 1036.17 310.867 1039.79 314.293C1043.46 317.656 1045.42 323.23 1045.67 331.015C1045.8 337.679 1045.86 343.938 1045.86 349.792C1045.92 355.584 1045.95 361.189 1045.95 366.607C1046.02 372.026 1046.02 377.475 1045.95 382.956C1045.95 388.374 1045.92 394.104 1045.86 400.145C1045.86 406.124 1045.8 412.57 1045.67 419.483C1045.49 427.33 1043.55 432.966 1039.88 436.391C1036.2 439.755 1030.07 441.436 1021.47 441.436ZM1021.47 431.44C1025.77 431.44 1028.88 430.693 1030.81 429.198C1032.75 427.641 1033.74 425.025 1033.8 421.351C1033.99 412.196 1034.12 403.882 1034.18 396.408C1034.3 388.935 1034.37 381.741 1034.37 374.828C1034.37 367.853 1034.3 360.722 1034.18 353.435C1034.12 346.086 1033.99 338.021 1033.8 329.24C1033.74 325.503 1032.75 322.887 1030.81 321.393C1028.88 319.836 1025.77 319.057 1021.47 319.057C1017.29 319.057 1014.24 319.836 1012.31 321.393C1010.44 322.887 1009.45 325.472 1009.32 329.146C1009.07 337.99 1008.88 346.086 1008.76 353.435C1008.64 360.722 1008.57 367.853 1008.57 374.828C1008.64 381.741 1008.73 388.935 1008.85 396.408C1008.98 403.882 1009.13 412.227 1009.32 421.444C1009.45 425.057 1010.44 427.641 1012.31 429.198C1014.24 430.693 1017.29 431.44 1021.47 431.44Z" fill="#222"/>
</svg>
